<?xml version="1.0" encoding="UTF-8" standalone="no"?>
<svg
   xmlns:dc="http://purl.org/dc/elements/1.1/"
   xmlns:cc="http://creativecommons.org/ns#"
   xmlns:rdf="http://www.w3.org/1999/02/22-rdf-syntax-ns#"
   xmlns:svg="http://www.w3.org/2000/svg"
   xmlns="http://www.w3.org/2000/svg"
   xmlns:sodipodi="http://sodipodi.sourceforge.net/DTD/sodipodi-0.dtd"
   xmlns:inkscape="http://www.inkscape.org/namespaces/inkscape"
   inkscape:version="1.0 (4035a4fb49, 2020-05-01)"
   sodipodi:docname="etiqueta.svg"
   xml:space="preserve"
   style="enable-background:new 0 0 512 512;"
   viewBox="0 0 512 512"
   y="0px"
   x="0px"
   id="Layer_1"
   version="1.1"><metadata
   id="metadata49"><rdf:RDF><cc:Work
       rdf:about=""><dc:format>image/svg+xml</dc:format><dc:type
         rdf:resource="http://purl.org/dc/dcmitype/StillImage" /></cc:Work></rdf:RDF></metadata><defs
   id="defs47" /><sodipodi:namedview
   inkscape:current-layer="Layer_1"
   inkscape:window-maximized="1"
   inkscape:window-y="-8"
   inkscape:window-x="-8"
   inkscape:cy="256"
   inkscape:cx="-136.9836"
   inkscape:zoom="0.48984232"
   showgrid="false"
   id="namedview45"
   inkscape:window-height="705"
   inkscape:window-width="1366"
   inkscape:pageshadow="2"
   inkscape:pageopacity="0"
   guidetolerance="10"
   gridtolerance="10"
   objecttolerance="10"
   borderopacity="1"
   bordercolor="#666666"
   pagecolor="#ffffff" />
<g
   style="fill:#fe4918;fill-opacity:1"
   id="g12">
	<g
   style="fill:#fe4918;fill-opacity:1"
   id="g10">
		<g
   style="fill:#fe4918;fill-opacity:1"
   id="g8">
			<path
   style="fill:#fe4918;fill-opacity:1"
   id="path2"
   d="M256,0C114.841,0,0,114.841,0,256c0,58.435,20.204,115.585,56.892,160.924c3.557,4.396,10.007,5.076,14.401,1.518     c4.396-3.557,5.076-10.005,1.518-14.402C39.065,362.336,20.48,309.76,20.48,256C20.48,126.134,126.134,20.48,256,20.48     S491.52,126.134,491.52,256S385.866,491.52,256,491.52c-53.76,0-106.333-18.585-148.038-52.331     c-4.396-3.555-10.842-2.877-14.401,1.52c-3.557,4.396-2.877,10.843,1.52,14.402C140.418,491.796,197.566,512,256,512     c141.159,0,256-114.841,256-256S397.159,0,256,0z" />
			<path
   style="fill:#fe4918;fill-opacity:1"
   id="path4"
   d="M360.2,111.931c3.049-4.762,1.66-11.096-3.102-14.145C326.933,78.475,291.975,68.267,256,68.267     C152.483,68.267,68.267,152.483,68.267,256S152.483,443.733,256,443.733S443.733,359.517,443.733,256     c0-43.77-15.389-86.378-43.333-119.975c-3.617-4.349-10.073-4.941-14.421-1.324c-4.349,3.615-4.941,10.072-1.324,14.421     c24.89,29.927,38.598,67.883,38.598,106.878c0,92.224-75.029,167.253-167.253,167.253S88.747,348.224,88.747,256     S163.776,88.747,256,88.747c32.054,0,63.193,9.09,90.055,26.288C350.816,118.084,357.149,116.696,360.2,111.931z" />
			<path
   style="fill:#fe4918;fill-opacity:1"
   id="path6"
   d="M286.72,215.04c0,5.655,4.585,10.24,10.24,10.24s10.24-4.585,10.24-10.24c0-24.726-17.618-45.412-40.96-50.169v-18.098     c0-5.655-4.585-10.24-10.24-10.24s-10.24,4.585-10.24,10.24v18.098c-23.342,4.757-40.96,25.443-40.96,50.169     s17.618,45.412,40.96,50.169v60.71c-11.918-4.227-20.48-15.609-20.48-28.959c0-5.655-4.585-10.24-10.24-10.24     s-10.24,4.585-10.24,10.24c0,24.726,17.618,45.412,40.96,50.169v18.098c0,5.655,4.585,10.24,10.24,10.24s10.24-4.585,10.24-10.24     v-18.098c23.342-4.757,40.96-25.443,40.96-50.169c0-24.726-17.618-45.412-40.96-50.169v-60.71     C278.158,190.308,286.72,201.69,286.72,215.04z M245.76,243.999c-11.918-4.227-20.48-15.609-20.48-28.959     s8.562-24.732,20.48-28.959V243.999z M286.72,296.96c0,13.35-8.562,24.732-20.48,28.959v-57.917     C278.158,272.228,286.72,283.61,286.72,296.96z" />
		</g>
	</g>
</g>
<g
   id="g14">
</g>
<g
   id="g16">
</g>
<g
   id="g18">
</g>
<g
   id="g20">
</g>
<g
   id="g22">
</g>
<g
   id="g24">
</g>
<g
   id="g26">
</g>
<g
   id="g28">
</g>
<g
   id="g30">
</g>
<g
   id="g32">
</g>
<g
   id="g34">
</g>
<g
   id="g36">
</g>
<g
   id="g38">
</g>
<g
   id="g40">
</g>
<g
   id="g42">
</g>
</svg>
